<mxfile host="app.diagrams.net" modified="2022-08-04T10:50:39.402Z" agent="5.0 (Windows NT 10.0; Win64; x64) AppleWebKit/537.36 (KHTML, like Gecko) Chrome/103.0.0.0 Safari/537.36" etag="lId3YoSsIylsEUWsC0TC" version="20.2.3" type="github">
  <diagram id="OvHcdO8nAjVrdUuOR3pL" name="Page-1">
    <mxGraphModel dx="1422" dy="786" grid="1" gridSize="10" guides="1" tooltips="1" connect="1" arrows="1" fold="1" page="1" pageScale="1" pageWidth="827" pageHeight="1169" math="0" shadow="0">
      <root>
        <mxCell id="0" />
        <mxCell id="1" parent="0" />
        <mxCell id="OnXVVr_oyJOdnh2bJdUr-21" value="" style="rounded=0;whiteSpace=wrap;html=1;strokeColor=none;" vertex="1" parent="1">
          <mxGeometry x="70" y="90" width="540" height="360" as="geometry" />
        </mxCell>
        <mxCell id="OnXVVr_oyJOdnh2bJdUr-7" style="edgeStyle=orthogonalEdgeStyle;rounded=0;orthogonalLoop=1;jettySize=auto;html=1;exitX=0.5;exitY=1;exitDx=0;exitDy=0;entryX=0.5;entryY=0;entryDx=0;entryDy=0;" edge="1" parent="1" source="OnXVVr_oyJOdnh2bJdUr-1" target="OnXVVr_oyJOdnh2bJdUr-2">
          <mxGeometry relative="1" as="geometry" />
        </mxCell>
        <mxCell id="OnXVVr_oyJOdnh2bJdUr-1" value="Start" style="rounded=1;whiteSpace=wrap;html=1;fillColor=#f5f5f5;fontColor=#333333;strokeColor=#666666;" vertex="1" parent="1">
          <mxGeometry x="280" y="100" width="120" height="40" as="geometry" />
        </mxCell>
        <mxCell id="OnXVVr_oyJOdnh2bJdUr-4" value="Material" style="edgeStyle=orthogonalEdgeStyle;rounded=0;orthogonalLoop=1;jettySize=auto;html=1;exitX=1;exitY=0.5;exitDx=0;exitDy=0;entryX=0.5;entryY=0;entryDx=0;entryDy=0;" edge="1" parent="1" source="OnXVVr_oyJOdnh2bJdUr-2" target="OnXVVr_oyJOdnh2bJdUr-3">
          <mxGeometry x="0.4286" relative="1" as="geometry">
            <mxPoint as="offset" />
          </mxGeometry>
        </mxCell>
        <mxCell id="OnXVVr_oyJOdnh2bJdUr-6" value="Work" style="edgeStyle=orthogonalEdgeStyle;rounded=0;orthogonalLoop=1;jettySize=auto;html=1;exitX=0;exitY=0.5;exitDx=0;exitDy=0;entryX=0.5;entryY=0;entryDx=0;entryDy=0;" edge="1" parent="1" source="OnXVVr_oyJOdnh2bJdUr-2" target="OnXVVr_oyJOdnh2bJdUr-5">
          <mxGeometry x="0.4286" relative="1" as="geometry">
            <mxPoint as="offset" />
          </mxGeometry>
        </mxCell>
        <mxCell id="OnXVVr_oyJOdnh2bJdUr-2" value="Work or Material?" style="rhombus;whiteSpace=wrap;html=1;fillColor=#fff2cc;strokeColor=#d6b656;" vertex="1" parent="1">
          <mxGeometry x="300" y="160" width="80" height="80" as="geometry" />
        </mxCell>
        <mxCell id="OnXVVr_oyJOdnh2bJdUr-11" value="Quantity" style="edgeStyle=orthogonalEdgeStyle;rounded=0;orthogonalLoop=1;jettySize=auto;html=1;exitX=0;exitY=0.5;exitDx=0;exitDy=0;entryX=0.5;entryY=0;entryDx=0;entryDy=0;" edge="1" parent="1" source="OnXVVr_oyJOdnh2bJdUr-3" target="OnXVVr_oyJOdnh2bJdUr-10">
          <mxGeometry x="-0.5" relative="1" as="geometry">
            <mxPoint as="offset" />
          </mxGeometry>
        </mxCell>
        <mxCell id="OnXVVr_oyJOdnh2bJdUr-12" value="Price" style="edgeStyle=orthogonalEdgeStyle;rounded=0;orthogonalLoop=1;jettySize=auto;html=1;exitX=1;exitY=0.5;exitDx=0;exitDy=0;entryX=0.5;entryY=0;entryDx=0;entryDy=0;" edge="1" parent="1" source="OnXVVr_oyJOdnh2bJdUr-3" target="OnXVVr_oyJOdnh2bJdUr-9">
          <mxGeometry x="-0.5" relative="1" as="geometry">
            <mxPoint as="offset" />
          </mxGeometry>
        </mxCell>
        <mxCell id="OnXVVr_oyJOdnh2bJdUr-13" style="edgeStyle=orthogonalEdgeStyle;rounded=0;orthogonalLoop=1;jettySize=auto;html=1;exitX=0.5;exitY=1;exitDx=0;exitDy=0;entryX=0.75;entryY=0;entryDx=0;entryDy=0;" edge="1" parent="1" source="OnXVVr_oyJOdnh2bJdUr-3" target="OnXVVr_oyJOdnh2bJdUr-10">
          <mxGeometry relative="1" as="geometry" />
        </mxCell>
        <mxCell id="OnXVVr_oyJOdnh2bJdUr-14" value="Both" style="edgeStyle=orthogonalEdgeStyle;rounded=0;orthogonalLoop=1;jettySize=auto;html=1;exitX=0.5;exitY=1;exitDx=0;exitDy=0;entryX=0.25;entryY=0;entryDx=0;entryDy=0;" edge="1" parent="1" source="OnXVVr_oyJOdnh2bJdUr-3" target="OnXVVr_oyJOdnh2bJdUr-9">
          <mxGeometry x="-0.75" relative="1" as="geometry">
            <mxPoint as="offset" />
          </mxGeometry>
        </mxCell>
        <mxCell id="OnXVVr_oyJOdnh2bJdUr-3" value="Change" style="rhombus;whiteSpace=wrap;html=1;fillColor=#fff2cc;strokeColor=#d6b656;" vertex="1" parent="1">
          <mxGeometry x="440" y="240" width="80" height="80" as="geometry" />
        </mxCell>
        <mxCell id="OnXVVr_oyJOdnh2bJdUr-17" value="External" style="edgeStyle=orthogonalEdgeStyle;rounded=0;orthogonalLoop=1;jettySize=auto;html=1;exitX=1;exitY=0.5;exitDx=0;exitDy=0;entryX=0.5;entryY=0;entryDx=0;entryDy=0;" edge="1" parent="1" source="OnXVVr_oyJOdnh2bJdUr-5" target="OnXVVr_oyJOdnh2bJdUr-15">
          <mxGeometry x="-0.5" relative="1" as="geometry">
            <mxPoint as="offset" />
          </mxGeometry>
        </mxCell>
        <mxCell id="OnXVVr_oyJOdnh2bJdUr-18" value="Internal" style="edgeStyle=orthogonalEdgeStyle;rounded=0;orthogonalLoop=1;jettySize=auto;html=1;exitX=0;exitY=0.5;exitDx=0;exitDy=0;entryX=0.5;entryY=0;entryDx=0;entryDy=0;" edge="1" parent="1" source="OnXVVr_oyJOdnh2bJdUr-5" target="OnXVVr_oyJOdnh2bJdUr-16">
          <mxGeometry x="-0.5" relative="1" as="geometry">
            <mxPoint as="offset" />
          </mxGeometry>
        </mxCell>
        <mxCell id="OnXVVr_oyJOdnh2bJdUr-19" style="edgeStyle=orthogonalEdgeStyle;rounded=0;orthogonalLoop=1;jettySize=auto;html=1;exitX=0.5;exitY=1;exitDx=0;exitDy=0;entryX=0.75;entryY=0;entryDx=0;entryDy=0;" edge="1" parent="1" source="OnXVVr_oyJOdnh2bJdUr-5" target="OnXVVr_oyJOdnh2bJdUr-16">
          <mxGeometry relative="1" as="geometry" />
        </mxCell>
        <mxCell id="OnXVVr_oyJOdnh2bJdUr-20" value="Both" style="edgeStyle=orthogonalEdgeStyle;rounded=0;orthogonalLoop=1;jettySize=auto;html=1;exitX=0.5;exitY=1;exitDx=0;exitDy=0;entryX=0.25;entryY=0;entryDx=0;entryDy=0;" edge="1" parent="1" source="OnXVVr_oyJOdnh2bJdUr-5" target="OnXVVr_oyJOdnh2bJdUr-15">
          <mxGeometry x="-0.7143" relative="1" as="geometry">
            <mxPoint as="offset" />
          </mxGeometry>
        </mxCell>
        <mxCell id="OnXVVr_oyJOdnh2bJdUr-5" value="Resources" style="rhombus;whiteSpace=wrap;html=1;fillColor=#fff2cc;strokeColor=#d6b656;" vertex="1" parent="1">
          <mxGeometry x="160" y="240" width="80" height="80" as="geometry" />
        </mxCell>
        <mxCell id="OnXVVr_oyJOdnh2bJdUr-9" value="Market Analysis" style="rounded=0;whiteSpace=wrap;html=1;" vertex="1" parent="1">
          <mxGeometry x="520" y="400" width="80" height="40" as="geometry" />
        </mxCell>
        <mxCell id="OnXVVr_oyJOdnh2bJdUr-10" value="Evaluate updated quantities" style="rounded=0;whiteSpace=wrap;html=1;" vertex="1" parent="1">
          <mxGeometry x="360" y="400" width="80" height="40" as="geometry" />
        </mxCell>
        <mxCell id="OnXVVr_oyJOdnh2bJdUr-15" value="See contract" style="rounded=0;whiteSpace=wrap;html=1;" vertex="1" parent="1">
          <mxGeometry x="240" y="400" width="80" height="40" as="geometry" />
        </mxCell>
        <mxCell id="OnXVVr_oyJOdnh2bJdUr-16" value="Evaluate updated work amount" style="rounded=0;whiteSpace=wrap;html=1;" vertex="1" parent="1">
          <mxGeometry x="80" y="400" width="80" height="40" as="geometry" />
        </mxCell>
      </root>
    </mxGraphModel>
  </diagram>
</mxfile>
